<svg width="11877" height="4106" viewBox="0 0 11877 4106" fill="none" xmlns="http://www.w3.org/2000/svg">
<g clip-path="url(#clip0_356_76)">
<path d="M9172.38 602.991L8779.91 1461.96C8902.2 1345.35 9067.15 1279.93 9172.38 1279.93C9394.21 1279.93 9496.59 1444.9 9456.78 1638.31C9408.43 1877.23 9166.69 2073.48 8953.4 2158.81C8956.24 2201.48 9021.65 2292.49 9121.19 2272.58C9303.2 2236.74 9463.6 2059.26 9566.56 1916.48L10113.7 608.68H10620L10048.3 1797.59C9869.16 2178.72 9869.15 2244.14 9928.88 2261.21C10008.5 2283.96 10204.7 2090.55 10338.4 1918.75L10602.9 1308.37H11089.2L10830.4 1794.74C10617.1 2190.1 10637 2244.14 10696.8 2261.21C10776.4 2283.96 10978.3 2093.39 11151.8 1794.74C11294 1513.16 11399.2 1311.22 11399.2 1308.37H11877.6C11621 1803.85 11320.2 2324.35 10955.6 3115.63L10607.5 3888.13C10547.2 4021.24 10415.2 4106.57 10269.6 4106.57H2959.44L3453.15 3043.95H10415.8C10496 3043.95 10568.8 2997.3 10602.9 2924.49C10610.3 2906.86 10618.3 2889.79 10626.2 2872.73L10631.3 2861.92C10684.2 2745.87 10741.1 2625.84 10799.1 2505.81C10679.7 2593.99 10568.8 2622.43 10460.7 2611.05C10298 2594.55 10209.3 2508.66 10201.9 2368.15C10010.8 2551.32 9825.93 2632.67 9675.76 2616.74C9529.02 2601.95 9438.58 2518.9 9436.87 2360.75C9290.12 2506.38 9117.21 2613.9 8916.42 2613.9C8680.37 2613.9 8526.8 2392.04 8498.36 2195.79C8486.98 2218.54 8475.61 2241.3 8467.08 2266.89C8427.26 2363.6 8384.6 2480.21 8336.25 2616.74H7918.19C7941.51 2544.5 7969.38 2463.15 7999.53 2376.11C7823.2 2539.94 7655.41 2611.05 7512.07 2611.05C7256.11 2611.05 7136.67 2431.86 7270.33 2130.37L7426.75 1800.43C7500.69 1604.18 7244.74 1618.4 7091.16 1939.8L6849.42 2616.74H6348.88L6413.16 2465.99C6280.06 2567.25 6154.93 2613.9 6041.74 2613.9C5902.38 2613.9 5800 2508.66 5797.15 2392.04C5731.74 2480.21 5552.57 2611.05 5381.93 2616.74C5043.5 2628.12 4958.18 2278.27 5123.13 1894.29C5239.74 1632.62 5501.38 1331.13 5822.75 1339.66C5930.82 1342.5 6004.76 1385.17 6067.33 1479.03L6135.59 1308.37H6619.06C6570.71 1407.92 6309.07 1971.09 6283.47 2030.82C6226.59 2164.5 6212.37 2255.52 6272.1 2258.36C6354 2263.48 6508.72 2107.61 6633.28 1948.9L6906.3 1308.37H7409.69L7341.43 1456.27C7537.67 1316.9 7654.27 1305.53 7762.34 1314.06C7947.2 1331.13 8052.42 1521.69 7887.47 1834.56C7719.68 2153.12 7688.4 2244.14 7748.12 2261.21C7836.28 2286.8 8035.36 2084.86 8166.18 1902.83H8171.87C8405.08 1279.36 8676.39 609.249 8674.69 602.991H9172.38ZM5458.72 622.328C5033.83 649.633 4585.62 645.651 4145.38 630.292C3995.21 747.476 3866.67 976.725 3704.56 1308.94H4701.66C4659 1385.73 4619.18 1465.37 4576.52 1545.01C4678.9 1453.99 4789.82 1377.2 4897.89 1323.16C4954.77 1229.3 5034.4 1141.12 5128.25 1078.55L5352.93 1334.54C5239.17 1408.49 4937.71 1690.07 4991.74 1903.39L4786.98 1909.08C4764.22 1849.35 4758.54 1772.55 4767.07 1692.91C4519.64 1843.66 4309.19 2133.78 4175.52 2381.23L4078.83 2617.3H3626.63L4057.21 1660.49H3536.76C3518.56 1698.6 3500.36 1737.85 3481.02 1777.67H3481.59L3307.54 2129.23C2731.92 3276.61 1982.25 4192.47 896.42 4099.74C525.566 4068.46 108.071 3859.69 0 3608.82L613.729 2959.19C718.388 3109.93 899.833 3245.32 1065.92 3264.66C1695.58 3368.76 2309.88 2820.39 2738.75 2128.66L2939.53 1777.1C2961.71 1737.28 2983.33 1698.03 3004.37 1659.92H2581.76L2695.52 1308.37H3194.35C3350.2 1015.41 3471.35 783.314 3588.53 606.4C3225.63 595.023 2885.5 583.077 2584.03 591.041C1996.47 614.364 1517.54 826.547 1405.49 1282.77C1320.74 1645.7 1645.52 1839.11 2027.75 1785.07L1680.22 2619.58C942.493 2662.24 482.338 2074.62 641.031 1386.87C853.76 478.977 1726.86 278.17 2565.26 216.165C3264.31 166.106 4597.57 146.765 5091.85 0L5458.72 622.328ZM6600.29 3205.51C6551.94 3205.51 6506.44 3214.61 6462.64 3232.24C6419.42 3249.88 6380.74 3274.91 6347.75 3306.76C6314.76 3338.62 6288.59 3376.73 6268.68 3420.53C6248.78 3464.33 6239.11 3512.69 6239.11 3565.59C6239.11 3618.49 6249.35 3667.42 6269.25 3711.79C6289.16 3756.16 6315.9 3794.84 6348.88 3827.26C6382.44 3859.69 6420.55 3885.29 6463.78 3902.92C6507.01 3920.56 6552.51 3929.66 6599.72 3929.66C6622.48 3929.66 6646.37 3927.38 6669.69 3922.83C6693.01 3918.28 6718.6 3910.89 6745.9 3901.22L6764.11 3894.96V3683.91C6718.6 3732.27 6667.41 3756.73 6610.53 3756.73C6584.37 3756.73 6559.91 3751.61 6537.72 3741.94C6515.54 3732.27 6495.63 3719.18 6479.14 3702.12C6462.08 3685.05 6449.56 3665.14 6439.89 3641.82C6430.22 3618.49 6425.67 3592.9 6425.67 3566.16C6425.67 3539.42 6430.79 3514.96 6439.89 3491.64C6448.99 3468.32 6462.08 3448.41 6478.57 3431.91C6495.07 3414.84 6514.4 3401.76 6537.16 3392.09C6559.91 3382.42 6584.37 3377.3 6611.1 3377.3C6671.96 3377.3 6722.58 3402.33 6764.11 3452.96V3240.77C6735.1 3228.83 6707.79 3219.73 6681.06 3214.04C6654.33 3208.35 6627.59 3205.51 6600.29 3205.51ZM5421.75 3204.94C5365.44 3204.94 5314.82 3214.04 5268.18 3232.81C5222.1 3251.01 5182.29 3277.18 5148.73 3309.61C5115.17 3342.03 5089 3380.71 5070.23 3424.51C5051.46 3468.32 5041.79 3516.1 5041.79 3566.73C5041.79 3617.36 5051.46 3665.14 5070.23 3708.94C5089 3752.74 5115.17 3790.86 5148.73 3823.85C5181.72 3856.28 5221.53 3881.88 5268.18 3900.65C5314.82 3919.42 5366.58 3928.52 5421.75 3928.52C5476.92 3928.52 5528.11 3919.42 5574.76 3900.65C5621.4 3882.44 5661.78 3856.85 5695.34 3823.85C5728.9 3791.43 5755.06 3752.74 5773.83 3708.94C5792.6 3665.14 5802.27 3617.36 5802.27 3566.73C5802.27 3516.1 5792.6 3468.32 5773.83 3424.51C5755.06 3380.71 5728.9 3342.6 5695.34 3309.61C5661.78 3277.18 5621.4 3251.58 5574.76 3232.81C5528.11 3214.04 5478.06 3204.94 5421.75 3204.94ZM8336.82 3224.85V3910.89H8727.01V3759.57H8514.85V3641.25H8715.07V3489.93H8514.85V3375.02H8727.01V3224.85H8336.82ZM3959.38 3223.71V3909.75H4137.98V3626.46H4395.64V3909.75H4574.25V3223.71H4395.64V3488.8H4137.98V3223.71H3959.38ZM7260.66 3223.71V3909.75H7439.26V3612.24L7671.33 3909.75H7902.26L7604.78 3548.53L7876.67 3223.71H7656.54L7439.26 3507V3223.71H7260.66ZM9125.17 3223.71L9375.44 3580.38V3909.75H9554.04V3580.38H9552.91L9804.31 3223.71H9591.58L9465.31 3411.43L9337.9 3223.71H9125.17ZM5421.75 3377.3C5447.92 3377.3 5472.38 3381.85 5495.7 3391.52C5519.02 3401.19 5539.49 3414.28 5557.69 3431.34C5575.33 3448.41 5589.55 3468.32 5599.78 3491.64C5610.02 3514.96 5615.14 3539.99 5615.14 3567.3C5615.14 3594.6 5610.02 3619.63 5599.78 3642.96C5589.55 3666.28 5575.33 3686.19 5557.69 3703.25C5539.49 3720.32 5519.02 3733.4 5495.7 3743.08C5472.38 3752.75 5447.92 3757.3 5421.75 3757.3C5395.59 3757.3 5371.13 3752.75 5347.81 3743.08C5324.49 3733.4 5304.01 3720.32 5286.38 3703.25C5268.75 3686.19 5254.53 3666.28 5244.29 3642.96C5234.05 3619.63 5228.93 3594.6 5228.93 3567.3C5228.93 3539.99 5233.48 3514.96 5244.29 3491.64C5255.09 3468.32 5268.75 3448.41 5286.38 3431.34C5304.01 3414.28 5324.49 3401.19 5347.81 3391.52C5371.13 3381.85 5395.59 3377.3 5421.75 3377.3ZM5975.76 1686.66C5975.76 1575.73 5862 1558.67 5756.77 1646.84C5643.01 1735.01 5520.72 1962.56 5529.25 2101.93C5534.94 2212.85 5645.85 2227.07 5756.77 2136.06C5864.84 2045.04 5975.76 1797.59 5975.76 1686.66ZM8984.68 1831.72C9058.62 1723.64 8993.21 1646.84 8907.89 1661.06C8791.29 1678.13 8669 1823.19 8526.8 2130.37C8663.31 2076.33 8893.67 1962.56 8984.68 1831.72Z" fill="#3AC0C6"/>
</g>
<defs>
<clipPath id="clip0_356_76">
<rect width="11877" height="4106" fill="white"/>
</clipPath>
</defs>
</svg>
