<svg width="1280" height="200" viewBox="0 250 1280 200" fill="none" xmlns="http://www.w3.org/2000/svg">
<path d="M294.449 304C294.449 304 247.634 352.474 238.161 363.05V304H180L196.523 313.915V415.49H233.975L339.943 304H294.449Z" fill="white"/>
<path d="M899.411 304H804.679L764.253 415.49H806.331C806.331 415.49 816.245 388.168 818.118 382.88H839.928C841.691 388.168 850.944 415.49 850.944 415.49H893.683C893.683 415.49 883.769 386.626 882.007 381.117C894.564 377.041 906.351 366.355 910.867 353.906C913.4 347.076 915.824 340.355 918.247 333.525C921.001 326.144 921.111 317.661 916.044 311.271C911.968 306.093 905.8 304 899.411 304ZM873.966 339.364C872.974 341.898 872.093 344.542 871.212 347.076C869.449 351.813 864.052 356.219 858.764 356.219H827.811C830.896 347.737 833.98 339.143 837.064 330.661H868.458C873.635 330.661 875.618 334.847 873.966 339.364Z" fill="white"/>
<path d="M375.632 385.965C373.209 392.685 372.768 400.397 376.623 406.676C380.479 412.846 387.529 415.379 394.468 415.379H485.675L495.369 388.719H425.421C420.354 388.719 418.371 384.533 420.024 380.016C422.667 372.745 436.987 333.635 438.089 330.661H507.596L517.179 304H405.704C405.704 304 378.496 378.143 375.632 385.965Z" fill="white"/>
<path d="M392.046 304H349.967L309.321 415.49H351.399L392.046 304Z" fill="white"/>
<path d="M603.759 330.661H641.432L651.125 304H529.075L519.382 330.661H561.571C556.614 344.542 530.728 415.49 530.728 415.49H572.806C572.806 415.49 593.185 359.635 601.226 337.381L580.958 330.771H603.649L603.759 330.661Z" fill="white"/>
<path d="M783.2 330.11C783.2 330.11 783.2 329.339 783.31 329.008C783.53 327.135 783.53 325.262 783.31 323.5C783.31 322.839 783.2 322.288 783.089 321.627C782.979 320.745 782.759 319.974 782.429 319.093C781.657 316.449 780.336 314.135 778.683 312.042C774.387 306.864 767.778 304 760.067 304H689.569C672.826 304 654.981 317 648.923 333.635L637.136 366.024C635.925 369.44 634.713 372.855 633.391 376.27L631.078 382.55C629.646 386.516 628.985 390.592 629.095 394.337C629.095 394.888 629.095 395.439 629.205 395.99C629.205 396.431 629.205 396.761 629.315 397.092C629.315 397.643 629.536 398.193 629.646 398.744C629.756 399.405 629.976 399.846 630.087 400.507C630.087 400.837 630.307 401.058 630.417 401.388L630.637 402.049L631.739 404.914H632.069C632.62 405.795 633.171 406.566 633.722 407.337C638.018 412.625 644.627 415.49 652.338 415.49H722.836C739.579 415.49 757.424 402.49 763.482 385.855L771.854 362.83C771.854 362.83 771.964 362.389 772.074 362.169L772.405 361.287C774.718 354.897 777.031 348.618 779.344 342.228L781.327 336.72C782.098 334.516 782.649 332.423 782.979 330.22V329.889L783.2 330.11ZM737.045 338.813C737.045 338.813 737.045 339.143 737.045 339.364C737.045 339.915 736.825 340.465 736.605 341.016C735.503 343.991 734.402 346.965 733.41 349.94C731.428 355.558 729.335 361.177 727.352 366.796C726.911 368.007 726.471 369.109 726.03 370.321C725.039 372.965 724.157 375.609 723.166 378.253C721.404 383.321 716.557 386.626 711.269 386.626H681.198C677.783 386.626 675.8 384.643 675.69 381.889C675.69 381.558 675.69 381.117 675.69 380.787C675.69 380.567 675.69 380.456 675.69 380.236C675.69 379.685 675.91 379.134 676.131 378.584C677.122 375.719 678.224 372.855 679.215 369.99C681.308 364.262 683.291 358.533 685.383 352.914C685.824 351.703 686.265 350.601 686.705 349.389C687.697 346.745 688.688 344.101 689.569 341.457C691.222 337.05 696.179 333.084 701.025 333.084H731.538C734.952 333.084 736.825 335.177 737.045 337.821C737.045 338.152 737.045 338.593 737.045 338.923V338.813Z" fill="white"/>
<path d="M1078.74 342.999L1088.65 319.424H1062.33L1057.15 324.932H1074L1062 353.245H1083.81L1075.22 373.406H1053.52L1041.84 401.058H1016.61L1010.78 407.227H1051.53L1061.45 383.761H1082.71L1099.89 342.999H1078.74Z" fill="white"/>
<path d="M1018.49 304L980.924 343.33L965.172 304H924.966C924.966 304 950.191 370.651 951.403 374.507C949.31 380.236 936.862 415.49 936.862 415.49H979.161L991.719 373.626L1056.6 304H1018.49Z" fill="white"/>
</svg>
